<?xml version="1.0" encoding="utf-8"?>
<!-- Generator: Adobe Illustrator 25.2.0, SVG Export Plug-In . SVG Version: 6.00 Build 0)  -->
<svg version="1.1" xmlns="http://www.w3.org/2000/svg" xmlns:xlink="http://www.w3.org/1999/xlink" x="0px" y="0px"
	 viewBox="0 0 1000 1000" style="enable-background:new 0 0 1000 1000;" xml:space="preserve">
<style type="text/css">
	.st0{fill:#FFFFFF;stroke:#000000;stroke-miterlimit:10;}
	.st1{stroke:#000000;stroke-miterlimit:10;}
</style>
<g id="Layer_1_copy">
	<path class="st0" d="M467.75,296.15"/>
	<polygon class="st1" points="266.91,80.24 266.91,149.72 499.15,234.42 514.29,170.46 	"/>
	<polygon class="st1" points="266.91,505.52 266.91,575.01 499.15,659.71 514.29,595.75 	"/>
	<polygon class="st1" points="322.41,256.09 124.27,183.82 124.27,253.31 322.41,325.57 	"/>
	<path class="st0" d="M322.3,255.08c-0.05-0.11-0.11-0.23-0.14-0.35c-0.01-0.08-0.02-0.17-0.03-0.25l-53.01-19.34v69.48l53.29,19.44
		v-68.6c-0.03-0.08-0.07-0.15-0.09-0.23C322.31,255.19,322.31,255.14,322.3,255.08z"/>
	<polygon class="st1" points="395.92,281.39 395.92,350.88 501.35,389.33 516.49,325.37 	"/>
	<polygon class="st1" points="443.65,738.15 246.47,666.23 246.47,735.72 443.65,807.64 	"/>
	<polygon class="st1" points="124.27,621.62 124.27,691.1 356.51,775.8 371.64,711.84 	"/>
	<polygon class="st1" points="730.93,80.24 730.93,149.72 498.69,234.42 483.56,170.46 	"/>
	<polygon class="st1" points="730.93,505.52 730.93,575.01 498.69,659.71 483.56,595.75 	"/>
	<polygon class="st1" points="554.47,738.28 554.47,807.76 769.88,729.2 769.88,659.71 	"/>
	<polygon class="st1" points="875.73,621.62 875.73,691.1 643.49,775.8 628.36,711.84 	"/>
	<polygon class="st1" points="732.6,235.7 732.6,305.19 500.36,389.89 485.22,325.93 	"/>
	<polygon class="st1" points="875.73,183.82 875.73,253.31 643.49,338.01 628.36,274.05 	"/>
	<path class="st1" d="M322.09,254.17c-0.01-0.16,0.01-0.31,0.05-0.46V141.96h-55.23v433.5h55.23v-320.9
		C322.12,254.43,322.11,254.3,322.09,254.17z"/>
	<rect x="124.27" y="207.82" class="st1" width="55.23" height="433.5"/>
	<rect x="820.5" y="207.82" class="st1" width="55.23" height="433.5"/>
</g>
<g id="Layer_1">
</g>
</svg>
